<svg xmlns="http://www.w3.org/2000/svg">
<line x1="253" y1="104" x2="335" y2="152" style="stroke:rgb(0,0,0); stroke-width:1" />
<line x1="253" y1="104" x2="300" y2="22" style="stroke:rgb(0,0,0); stroke-width:1" />
<line x1="253" y1="104" x2="299" y2="185" style="stroke:rgb(0,0,0); stroke-width:1" />
<line x1="253" y1="104" x2="169" y2="152" style="stroke:rgb(0,0,0); stroke-width:1" />
<line x1="169" y1="152" x2="85" y2="103" style="stroke:rgb(0,0,0); stroke-width:1" />
<line x1="85" y1="103" x2="0" y2="152" style="stroke:rgb(0,0,0); stroke-width:1" />
<line x1="85" y1="103" x2="127" y2="30" style="stroke:rgb(0,0,0); stroke-width:1" />
<line x1="169" y1="152" x2="215" y2="232" style="stroke:rgb(0,0,0); stroke-width:1" />
<line x1="215" y1="232" x2="168" y2="311" style="stroke:rgb(0,0,0); stroke-width:1" />
<line x1="215" y1="232" x2="293" y2="277" style="stroke:rgb(0,0,0); stroke-width:1" />
<line x1="215" y1="232" x2="136" y2="276" style="stroke:rgb(0,0,0); stroke-width:1" />
<line x1="169" y1="152" x2="213" y2="76" style="stroke:rgb(0,0,0); stroke-width:1" />
<line x1="213" y1="76" x2="169" y2="0" style="stroke:rgb(0,0,0); stroke-width:1" />
<line x1="213" y1="76" x2="288" y2="33" style="stroke:rgb(0,0,0); stroke-width:1" />
<line x1="213" y1="76" x2="138" y2="33" style="stroke:rgb(0,0,0); stroke-width:1" />
</svg>
